<?xml version="1.0" standalone="no"?>
<!DOCTYPE svg PUBLIC "-//W3C//DTD SVG 20010904//EN"
 "http://www.w3.org/TR/2001/REC-SVG-20010904/DTD/svg10.dtd">
<svg version="1.0" xmlns="http://www.w3.org/2000/svg"
 width="500.000000pt" height="500.000000pt" viewBox="0 0 500.000000 500.000000"
 preserveAspectRatio="xMidYMid meet">
<metadata>
Created by potrace 1.11, written by Peter Selinger 2001-2013
</metadata>
<g transform="translate(0.000000,500.000000) scale(0.100000,-0.100000)"
fill="#000000" stroke="none">
<path d="M2210 4426 c-104 -36 -171 -67 -187 -88 -33 -41 -252 -648 -363
-1008 -140 -453 -150 -489 -246 -955 -59 -288 -91 -429 -130 -565 -75 -262
-172 -495 -220 -526 -24 -16 -26 -16 -50 7 -33 31 -72 158 -82 272 -24 257 44
561 189 844 76 148 79 165 41 203 -51 51 -70 43 -159 -67 -165 -205 -267 -432
-319 -708 -24 -129 -15 -418 16 -525 44 -153 115 -246 228 -298 73 -34 225
-43 296 -19 167 57 277 275 381 760 40 183 103 453 341 1452 98 411 197 765
213 765 21 0 28 -274 11 -435 -38 -362 -69 -667 -81 -810 -6 -77 -12 -252 -12
-390 0 -205 4 -276 22 -391 46 -309 93 -410 194 -421 63 -7 111 11 195 76 l74
56 -6 70 c-8 86 8 177 59 335 126 389 353 906 717 1635 88 176 164 325 169
330 23 23 -25 -191 -189 -850 -215 -860 -342 -1428 -382 -1704 -23 -157 5
-289 82 -376 78 -89 144 -117 276 -116 104 1 213 31 302 83 l55 33 -55 5
c-142 15 -221 115 -255 323 -43 264 -7 488 329 2047 128 593 161 793 149 893
-7 47 -48 83 -107 92 -87 13 -303 -68 -360 -136 -50 -60 -392 -772 -551 -1149
-29 -69 -94 -219 -145 -335 -86 -196 -219 -521 -235 -572 -22 -74 -35 28 -35
269 0 107 13 322 34 581 19 227 38 453 41 502 9 115 -13 758 -26 792 -24 63
-81 68 -219 19z"/>
</g>
</svg>
